<?xml version="1.0" encoding="utf-8"?>
<!-- Generator: Adobe Illustrator 26.4.1, SVG Export Plug-In . SVG Version: 6.00 Build 0)  -->
<svg version="1.1" id="Layer_1" xmlns="http://www.w3.org/2000/svg" xmlns:xlink="http://www.w3.org/1999/xlink" x="0px" y="0px"
	 viewBox="0 0 797 225" style="enable-background:new 0 0 797 225;" xml:space="preserve">
<style type="text/css">
	.st0{fill:#051833;}
	.st1{fill:#3D71B7;}
</style>
<g>
	<path class="st0" d="M76.3,207.2c-0.3-1.8-0.3-91.5,0-93.2c0.3-0.1,0.7-0.2,1.1-0.2c0.3,0,0.7,0,1,0c23.3,0,46.7,0,70,0
		c5.1,0,10.1,0.7,14.9,2.4c2.4,0.8,4.7,2,6.8,3.5c5.5,4,8.2,9.8,8.5,17c0.1,2.4,0,4.9-0.5,7.2c-1,4.6-3.2,8.3-7,10.6
		c-0.3,0.2-0.5,0.4-1,0.7c0.6,0.1,1,0.2,1.3,0.3c5.4,0.9,10.4,3.1,14.8,6.7c3.5,2.9,6.2,6.4,7.7,11c1.3,4,1.2,8.1,0.7,12.2
		c-1.1,8-5.1,13.6-11.6,17c-4.1,2.2-8.4,3.2-12.8,3.9c-3.9,0.6-7.7,0.8-11.6,0.8c-26.7,0-53.5,0-80.2,0
		C77.6,207.3,76.9,207.2,76.3,207.2z M102.9,183.6c0.8,0,1.5,0.1,2.1,0.1c16.7,0,33.5,0,50.2,0c1.3,0,2.6-0.1,3.8-0.3
		c0.9-0.1,1.8-0.4,2.7-0.8c1.6-0.8,2.6-2.2,3-4.1c0.8-4.1-1-7.5-4.5-8.7c-1.8-0.6-3.6-0.7-5.4-0.7c-11.8,0-23.5,0-35.3,0
		c-4.9,0-9.9,0-14.8,0c-0.6,0-1.2,0.1-1.9,0.1C102.8,174,102.8,178.7,102.9,183.6z M103.1,150.5c0.6,0,1.2,0.1,1.9,0.1
		c12.3,0,24.6,0,36.9,0c1,0,2,0,3-0.2c1.1-0.2,2.2-0.5,3.2-0.9c1.9-0.9,2.9-2.6,3.2-4.8c0.1-0.6,0.1-1.2,0.1-1.9
		c-0.1-2.8-1.3-4.8-3.7-5.6c-1.2-0.4-2.6-0.6-3.9-0.6c-13,0-26,0-39.1,0c-0.5,0-1.1,0.1-1.6,0.1
		C102.8,138.3,102.8,148.7,103.1,150.5z"/>
	<path class="st0" d="M722,175.7c-0.9,0-1.6,0.1-2.3,0.1c-24.2,0-48.5,0-72.7,0c-0.7,0-1.4,0-2.2,0.1c0.1,0.6,0.1,1,0.2,1.4
		c1.1,4.7,3.7,8,7.5,10.2c2.7,1.5,5.6,2.4,8.6,2.8c7.3,1.1,14.6,1.1,21.8-0.6c2.6-0.6,5.1-1.5,7.4-2.9c1.4-0.9,2.8-1.9,4-3
		c0.8-0.7,1.4-0.9,2.4-0.6c3.3,1,6.6,1.8,9.8,2.7c3.8,1,7.5,2.1,11.3,3.1c0.5,0.1,0.9,0.3,1.5,0.5c-0.3,0.7-0.6,1.3-0.9,1.8
		c-2,3.6-4.6,6.4-7.7,8.6c-3.6,2.6-7.5,4.3-11.6,5.6c-4.3,1.3-8.6,2.2-13.1,2.7c-5.4,0.6-10.8,1.1-16.3,1
		c-7.3-0.1-14.6-0.7-21.8-2.3c-4.8-1-9.5-2.6-13.8-5.2c-7.7-4.6-12.5-11.6-14.3-21.1c-1.4-7.5-1.4-15,0.1-22.4
		c1.8-9,6.3-15.8,13.5-20.3c4.7-2.9,9.8-4.6,15.1-5.7c6.3-1.3,12.6-1.8,19-1.9c6.7-0.1,13.3,0,19.9,0.8c5.6,0.7,11.2,1.8,16.5,4.1
		c3.4,1.5,6.6,3.5,9.4,6.3c3.5,3.6,5.7,8.1,7,13.1c1.1,4.5,1.6,9,1.8,13.6c0.1,1.9,0.1,3.7,0.1,5.6C722.1,174.3,722,174.9,722,175.7
		z M695.8,160.4c0-0.2,0.1-0.4,0.1-0.5c-0.1-0.4-0.2-0.7-0.3-1.1c-1.1-2.9-2.9-5.1-5.4-6.7c-2.1-1.4-4.4-2.3-6.8-2.8
		c-8-1.7-16.1-1.7-24.1-0.3c-2.9,0.5-5.7,1.5-8.3,3.2c-2.4,1.6-4.2,3.8-5.3,6.8c-0.1,0.4-0.2,0.8-0.3,1.2c1.6,0.3,40.2,0.5,49.2,0.2
		C695.1,160.5,695.4,160.4,695.8,160.4z"/>
	<path class="st0" d="M306.4,175.9c0.6,3.2,1.7,5.8,3.5,8c2.4,2.9,5.4,4.5,8.8,5.4c2.3,0.6,4.6,1.1,6.9,1.3
		c6.3,0.6,12.5,0.5,18.7-0.9c2.7-0.6,5.3-1.5,7.7-3c1.4-0.9,2.8-2,4.1-3.1c0.6-0.5,1.1-0.8,1.9-0.6c7.3,2,14.6,4.1,22,6.1
		c0.3,0.1,0.6,0.3,1,0.5c-0.3,0.6-0.5,1.2-0.8,1.7c-2,3.6-4.7,6.5-7.8,8.7c-3.6,2.6-7.5,4.3-11.6,5.6c-4.7,1.5-9.5,2.3-14.4,2.8
		c-5,0.5-9.9,1-14.9,0.8c-7.8-0.2-15.6-0.8-23.3-2.6c-3.6-0.9-7.2-2.1-10.6-3.9c-8.7-4.5-14.2-12-16-22.6
		c-1.3-7.4-1.3-14.9,0.3-22.2c2.1-9.9,7.4-16.8,15.5-21.2c4.8-2.5,9.8-4,15-4.9c5.7-1,11.3-1.4,17.1-1.5c6.7-0.1,13.3,0,19.9,0.8
		c5.6,0.7,11.2,1.8,16.5,4.1c3.9,1.7,7.4,4,10.3,7.4c3.6,4.2,5.6,9.4,6.7,15c1.1,5.7,1.2,11.5,1.1,17.3c0,0.2-0.1,0.5-0.1,0.8
		c-0.4,0.1-0.7,0.2-1.1,0.2c-0.5,0-1.1,0-1.7,0c-24,0-47.9,0-71.9,0C308.2,175.8,307.4,175.8,306.4,175.9z M357.6,160.3
		c0-0.3,0-0.4,0-0.5c0-0.2-0.1-0.4-0.1-0.5c-1-3-2.8-5.2-5.1-6.9c-2.7-1.8-5.7-2.8-8.8-3.3c-7.4-1.3-14.8-1.3-22.2,0
		c-3,0.5-6,1.5-8.6,3.2c-2.3,1.5-4,3.5-5.1,6.2c-0.2,0.5-0.4,1.1-0.5,1.7C308.5,160.6,355.9,160.7,357.6,160.3z"/>
	<path class="st0" d="M498.9,176.2c-0.9,0-1.6,0.1-2.4,0.1c-24.2,0-48.4,0-72.6,0c-0.7,0-1.4,0-2.3,0c0.6,3.6,2,6.5,4.2,8.9
		c1.4,1.5,3,2.5,4.8,3.3c2.7,1.3,5.5,2,8.4,2.3c6.6,0.9,13.2,0.9,19.7-0.6c2.1-0.5,4.1-1.1,6.1-1.9c2.4-0.9,4.6-2.4,6.5-4.4
		c0.5-0.5,1-0.9,1.8-0.6c7.4,2.1,14.7,4.1,22.1,6.2c0.3,0.1,0.5,0.2,0.9,0.4c-0.2,0.4-0.2,0.9-0.4,1.2c-2.4,4.6-5.8,7.9-9.9,10.5
		c-4.6,2.9-9.6,4.5-14.7,5.7c-8.5,1.8-17,2.3-25.7,2.2c-4.9-0.1-9.9-0.4-14.8-1.1c-4.9-0.7-9.7-1.8-14.4-3.7
		c-4.2-1.7-8.1-4.1-11.4-7.5c-4.3-4.4-6.8-9.9-8-16.3c-1.5-8-1.4-15.9,0.5-23.9c2-8.5,6.6-14.8,13.5-19c4.7-2.9,9.8-4.5,15.1-5.6
		c6.2-1.3,12.5-1.7,18.9-1.8c6-0.1,12.1,0,18.1,0.7c6,0.6,12,1.7,17.7,4.1c1.5,0.6,3,1.4,4.4,2.2c6,3.5,9.9,9,12,16.2
		c1.5,5.1,2,10.3,2.1,15.7c0,1.6,0,3.2,0,4.9C499,175,498.9,175.5,498.9,176.2z M472.9,161.1c-0.1-1.5-0.6-2.5-1.1-3.4
		c-1.5-2.8-3.7-4.6-6.3-5.9c-2.4-1.2-4.9-1.9-7.5-2.3c-6.2-1-12.4-1-18.6-0.3c-3.3,0.4-6.5,1.1-9.5,2.6c-3.3,1.6-5.8,4.1-7.2,7.9
		c-0.1,0.4-0.2,0.8-0.3,1.4C439.3,161.1,456,161.1,472.9,161.1z"/>
	<path class="st0" d="M608.7,132.6c0,0.7,0.1,1.3,0.1,1.9c0,5,0,10,0,14.9c0,1.3-0.4,2.1-1.4,2.8c-11.8,7.4-23.6,14.8-35.4,22.2
		c-7.1,4.4-14.1,8.9-21.2,13.3c-0.4,0.2-0.7,0.5-1.4,1c2.6,0.2,4.8,0.1,7,0.1c2.2,0,4.3,0,6.5,0c2.2,0,4.4,0,6.7,0s4.4,0,6.7,0
		c2.2,0,4.3,0,6.5,0c2.2,0,4.4,0,6.7,0c2.2,0,4.4,0,6.7,0c2.2,0,4.3,0,6.5,0c2.2,0,4.4,0,6.7,0c0.1,0.5,0.2,0.9,0.2,1.2
		c0,5.5,0,11,0,16.4c0,0.3-0.1,0.6-0.1,1c-0.4,0.1-0.8,0.2-1.1,0.2c-0.4,0-0.8,0-1.2,0c-31.8,0-63.7,0-95.5,0c-0.7,0-1.4,0-2.3,0
		c0-0.8-0.1-1.4-0.1-2c0-5.4,0-10.8,0-16.3c0-1.4,0.4-2.1,1.5-2.7c18.4-11.4,36.7-22.8,55-34.1c0.8-0.5,1.5-1,2.6-1.6
		c-0.6-0.1-0.9-0.2-1.2-0.3c-0.5,0-1,0-1.5,0c-17.7,0-35.4,0-53.1,0c-0.7,0-1.4,0-2.1-0.1c-0.3-1.7-0.3-16.4,0-18
		c0,0,0.1-0.1,0.1-0.1c0,0,0.1,0,0.2-0.1c0.4,0,0.8-0.1,1.2-0.1c32.1,0,64.2,0,96.3,0C608.2,132.4,608.3,132.5,608.7,132.6z"/>
	<path class="st0" d="M207,132.2c1.8-0.4,21.9-0.4,23.3,0c0.6,4,0.7,8,1.3,12.2c0.3-0.2,0.5-0.2,0.6-0.3c3.6-4,8.1-6.5,12.8-8.5
		c6.4-2.7,13-4.2,19.8-4.9c2.1-0.2,4.2-0.3,6.3-0.4c0.3,0,0.6,0.1,1.1,0.1c0.2,1.9,0.1,3.8,0.1,5.8c0,1.9,0,3.9,0,5.8
		c0,1.9,0,3.9,0,5.8c0,1.9,0,3.8,0,5.9c-0.7,0-1.2,0.1-1.8,0.1c-4.8,0.1-9.6,0.3-14.4,0.9c-4.8,0.7-9.5,1.6-14.1,3.5
		c-2.4,1-4.7,2.3-6.6,4.2c-1,0.9-1.5,2-1.4,3.5c0,13,0,25.9,0,38.9c0,0.7,0,1.5,0,2.3c-0.6,0.1-1,0.2-1.4,0.2c-8,0-16,0-24,0
		c-0.4,0-0.9-0.1-1.3-0.2c-0.1-0.5-0.1-0.9-0.1-1.3C207,181.3,207,156.8,207,132.2z"/>
	<path class="st1" d="M498.1,130.9L429.4,62c-0.5-0.5-0.1-1.3,0.5-1.3h14.8c8.6,0,16.9,3.4,23,9.6l30.9,31l74.7-75
		C586.5,13.2,604.2,5.5,622.8,5c0.7,0,1,0.8,0.6,1.3L499.2,130.9C498.9,131.2,498.4,131.2,498.1,130.9z"/>
</g>
</svg>
