<svg xmlns="http://www.w3.org/2000/svg" fill="none" viewBox="0 0 200 36" height="36" width="200">
<path fill="#252525" d="M200 28.8538H199.665V26.4616H199.653L198.721 28.8538H198.503L197.572 26.4616H197.559V28.8538H197.225V26.1826H197.841L198.614 28.156H198.626L199.382 26.1826H199.999V28.8538H200ZM196.723 26.4368H195.864V28.8538H195.529V26.4368H194.669V26.1826H196.725V26.4368H196.723ZM58.8304 18.6675C58.8304 24.5106 55.4342 29.4468 49.1961 29.4468C42.958 29.4468 39.5618 24.5106 39.5618 18.6675C39.5618 12.8243 42.9568 7.88817 49.1949 7.88817C55.4329 7.88817 58.8292 12.8243 58.8292 18.6675H58.8304ZM42.0497 18.6675C42.0497 23.0106 44.4182 27.3537 49.1961 27.3537C53.974 27.3537 56.3424 23.0106 56.3424 18.6675C56.3424 14.3243 53.9728 9.98121 49.1949 9.98121C44.4169 9.98121 42.0485 14.3243 42.0485 18.6675H42.0497ZM58.3869 8.48121H61.1503L67.5465 26.367H67.625L73.9429 8.48121H76.5093L68.8896 28.8538H66.2433L58.3857 8.48121H58.3869ZM78.8105 19.339C78.8504 22.9707 80.7453 27.3537 85.5233 27.3537C89.1564 27.3537 91.1298 25.222 91.9192 22.1422H94.4073C93.3414 26.7619 90.6564 29.4468 85.5233 29.4468C79.0484 29.4468 76.3237 24.472 76.3237 18.6675C76.3237 13.2978 79.0484 7.88817 85.5233 7.88817C92.0768 7.88817 94.683 13.6142 94.4861 19.3378H78.8092L78.8105 19.339ZM91.998 17.246C91.8799 13.4958 89.5511 9.98121 85.5233 9.98121C81.4568 9.98121 79.2066 13.5345 78.8105 17.246H91.998ZM120.045 14.4427C119.926 11.3641 117.557 9.98121 114.714 9.98121C112.503 9.98121 109.897 10.8496 109.897 13.4946C109.897 15.706 112.424 16.4972 114.121 16.9307L117.438 17.6807C120.28 18.1143 123.244 19.7738 123.244 23.3257C123.244 27.7486 118.859 29.4468 115.071 29.4468C110.331 29.4468 107.093 27.2353 106.698 22.2606H109.186C109.384 25.6169 111.871 27.3537 115.188 27.3537C117.518 27.3537 120.756 26.3271 120.756 23.484C120.756 21.1169 118.544 20.3257 116.292 19.7725L113.094 19.0624C109.857 18.194 107.409 17.0877 107.409 13.6129C107.409 9.46793 111.476 7.88817 115.069 7.88817C119.136 7.88817 122.374 10.0211 122.532 14.4427H120.044H120.045ZM129.348 8.48121H133.493V10.5743H129.347V24.3138C129.347 25.9334 129.583 26.8803 131.36 26.9986C132.07 26.9986 132.782 26.9588 133.492 26.8803V29.012C132.742 29.012 132.032 29.0905 131.282 29.0905C127.964 29.0905 126.819 27.9853 126.859 24.5106V10.573H124.451V8.47997H126.859V2.36273H129.347V8.48245L129.348 8.48121ZM153.226 18.6675C153.226 24.5106 149.83 29.4468 143.592 29.4468C137.354 29.4468 133.958 24.5106 133.958 18.6675C133.958 12.8243 137.354 7.88817 143.592 7.88817C149.83 7.88817 153.226 12.8243 153.226 18.6675ZM136.445 18.6675C136.445 23.0106 138.814 27.3537 143.592 27.3537C148.369 27.3537 150.738 23.0106 150.738 18.6675C150.738 14.3243 148.368 9.98121 143.591 9.98121C138.813 9.98121 136.445 14.3243 136.445 18.6675ZM170.853 14.8775C170.182 11.8376 168.326 9.98121 165.088 9.98121C160.311 9.98121 157.942 14.3243 157.942 18.6675C157.942 23.0106 160.311 27.3537 165.088 27.3537C168.168 27.3537 170.695 24.9454 171.011 21.5504H173.498C172.826 26.4467 169.63 29.4468 165.088 29.4468C158.85 29.4468 155.454 24.5106 155.454 18.6675C155.454 12.8243 158.85 7.88817 165.088 7.88817C169.432 7.88817 172.788 10.2179 173.341 14.8775H170.853ZM176.111 0.662109H178.599V18.351L189.891 8.48121H193.206L184.52 16.0225L193.8 28.855H190.68L182.626 17.7592L178.599 21.1156V28.8538H176.111V0.663356V0.662109ZM106.127 8.29433V10.7661C102.524 11.3006 100.166 14.3007 100.166 17.9972V28.855H97.6769V8.48121H99.968V13.2579H100.047C101.115 10.4858 103.267 8.69051 106.127 8.29308V8.29433Z"></path>
<path fill="white" d="M0 0.512207V21.5071C0 31.7975 4.56735 35.4309 12.7998 35.4309H34.9187V0.512207H0Z"></path>
<path fill="#BD0000" d="M0 0.512207V18.8111C2.69771 11.5417 10.1732 5.98342 17.7673 5.98342C26.1791 5.98342 31.5488 12.8013 29.7609 21.2145C28.3824 27.6992 23.1521 33.2333 16.9749 35.4309H34.9187V0.512207H0Z"></path>
<path fill="#BD0000" d="M14.5298 34.3801C19.8617 34.3801 24.1841 28.4857 24.1841 21.2145C24.1841 13.9434 19.8617 8.04902 14.5298 8.04902C9.19787 8.04902 4.87548 13.9434 4.87548 21.2145C4.87548 28.4857 9.19787 34.3801 14.5298 34.3801Z"></path>
</svg>
